<mxfile host="65bd71144e">
    <diagram id="RIucz2lh727nmrz1JKRm" name="Page-1">
        <mxGraphModel dx="517" dy="496" grid="1" gridSize="10" guides="1" tooltips="1" connect="1" arrows="1" fold="1" page="1" pageScale="1" pageWidth="827" pageHeight="1169" background="none" math="0" shadow="0">
            <root>
                <mxCell id="0"/>
                <mxCell id="1" parent="0"/>
            </root>
        </mxGraphModel>
    </diagram>
    <diagram name="Страница — 1" id="l5r-ZFWAdYoTasGpRFwJ">
        <mxGraphModel dx="517" dy="496" grid="1" gridSize="10" guides="1" tooltips="1" connect="1" arrows="1" fold="1" page="1" pageScale="1" pageWidth="827" pageHeight="1169" background="none" math="0" shadow="0">
            <root>
                <mxCell id="0"/>
                <mxCell id="1" parent="0"/>
                <mxCell id="mlYN5_otddNIhUL00L2O-2" value="" style="rounded=0;whiteSpace=wrap;html=1;labelBackgroundColor=none;" parent="1" vertex="1">
                    <mxGeometry x="35" y="40" width="230" height="380" as="geometry"/>
                </mxCell>
                <mxCell id="mlYN5_otddNIhUL00L2O-3" value="" style="rounded=0;whiteSpace=wrap;html=1;labelBackgroundColor=none;" parent="1" vertex="1">
                    <mxGeometry x="40" y="900" width="230" height="380" as="geometry"/>
                </mxCell>
                <mxCell id="mlYN5_otddNIhUL00L2O-4" value="" style="rounded=0;whiteSpace=wrap;html=1;labelBackgroundColor=none;" parent="1" vertex="1">
                    <mxGeometry x="299" y="40" width="230" height="380" as="geometry"/>
                </mxCell>
                <mxCell id="mlYN5_otddNIhUL00L2O-5" value="" style="rounded=0;whiteSpace=wrap;html=1;labelBackgroundColor=none;" parent="1" vertex="1">
                    <mxGeometry x="565" y="40" width="230" height="380" as="geometry"/>
                </mxCell>
                <mxCell id="mlYN5_otddNIhUL00L2O-6" value="" style="rounded=0;whiteSpace=wrap;html=1;labelBackgroundColor=none;" parent="1" vertex="1">
                    <mxGeometry x="35" y="480" width="230" height="380" as="geometry"/>
                </mxCell>
                <mxCell id="mlYN5_otddNIhUL00L2O-7" value="" style="rounded=0;whiteSpace=wrap;html=1;labelBackgroundColor=none;" parent="1" vertex="1">
                    <mxGeometry x="570" y="480" width="230" height="380" as="geometry"/>
                </mxCell>
                <mxCell id="mlYN5_otddNIhUL00L2O-8" value="" style="rounded=0;whiteSpace=wrap;html=1;labelBackgroundColor=none;" parent="1" vertex="1">
                    <mxGeometry x="299" y="480" width="230" height="380" as="geometry"/>
                </mxCell>
                <mxCell id="mlYN5_otddNIhUL00L2O-9" value="Логин" style="rounded=0;whiteSpace=wrap;html=1;labelBackgroundColor=none;fillColor=#d5e8d4;gradientColor=#97d077;strokeColor=#82b366;" parent="1" vertex="1">
                    <mxGeometry x="90" y="80" width="120" height="30" as="geometry"/>
                </mxCell>
                <mxCell id="mlYN5_otddNIhUL00L2O-10" value="Пароль" style="rounded=0;whiteSpace=wrap;html=1;labelBackgroundColor=none;fillColor=#d5e8d4;gradientColor=#97d077;strokeColor=#82b366;" parent="1" vertex="1">
                    <mxGeometry x="90" y="130" width="120" height="30" as="geometry"/>
                </mxCell>
                <mxCell id="mlYN5_otddNIhUL00L2O-11" value="email" style="rounded=0;whiteSpace=wrap;html=1;labelBackgroundColor=none;fillColor=#d5e8d4;gradientColor=#97d077;strokeColor=#82b366;" parent="1" vertex="1">
                    <mxGeometry x="349" y="170" width="120" height="30" as="geometry"/>
                </mxCell>
                <mxCell id="mlYN5_otddNIhUL00L2O-12" value="Логин" style="rounded=0;whiteSpace=wrap;html=1;labelBackgroundColor=none;fillColor=#d5e8d4;gradientColor=#97d077;strokeColor=#82b366;" parent="1" vertex="1">
                    <mxGeometry x="349" y="130" width="120" height="30" as="geometry"/>
                </mxCell>
                <mxCell id="mlYN5_otddNIhUL00L2O-13" value="Пароль" style="rounded=0;whiteSpace=wrap;html=1;labelBackgroundColor=none;fillColor=#d5e8d4;gradientColor=#97d077;strokeColor=#82b366;" parent="1" vertex="1">
                    <mxGeometry x="349" y="210" width="120" height="30" as="geometry"/>
                </mxCell>
                <mxCell id="mlYN5_otddNIhUL00L2O-15" value="Вход" style="rounded=1;whiteSpace=wrap;html=1;labelBackgroundColor=none;fillColor=#b0e3e6;strokeColor=#0e8088;" parent="1" vertex="1">
                    <mxGeometry x="90" y="180" width="120" height="30" as="geometry"/>
                </mxCell>
                <mxCell id="mlYN5_otddNIhUL00L2O-17" value="Регистрация" style="rounded=1;whiteSpace=wrap;html=1;labelBackgroundColor=none;fillColor=#fff2cc;strokeColor=#d6b656;gradientColor=#ffd966;" parent="1" vertex="1">
                    <mxGeometry x="90" y="230" width="120" height="30" as="geometry"/>
                </mxCell>
                <mxCell id="mlYN5_otddNIhUL00L2O-18" value="Забыли пароль?" style="rounded=1;whiteSpace=wrap;html=1;labelBackgroundColor=none;fillColor=#fad9d5;strokeColor=#ae4132;" parent="1" vertex="1">
                    <mxGeometry x="80" y="280" width="140" height="30" as="geometry"/>
                </mxCell>
                <mxCell id="mlYN5_otddNIhUL00L2O-19" value="Повторите пароль" style="rounded=0;whiteSpace=wrap;html=1;labelBackgroundColor=none;fillColor=#d5e8d4;gradientColor=#97d077;strokeColor=#82b366;" parent="1" vertex="1">
                    <mxGeometry x="349" y="250" width="120" height="30" as="geometry"/>
                </mxCell>
                <mxCell id="mlYN5_otddNIhUL00L2O-20" value="Регистрация" style="rounded=1;whiteSpace=wrap;html=1;labelBackgroundColor=none;fillColor=#dae8fc;gradientColor=#7ea6e0;strokeColor=#6c8ebf;" parent="1" vertex="1">
                    <mxGeometry x="349" y="310" width="120" height="35" as="geometry"/>
                </mxCell>
                <mxCell id="mlYN5_otddNIhUL00L2O-23" value="Уборка" style="rounded=0;whiteSpace=wrap;html=1;fillColor=#d5e8d4;gradientColor=#97d077;strokeColor=#82b366;" parent="1" vertex="1">
                    <mxGeometry x="90" y="555" width="120" height="30" as="geometry"/>
                </mxCell>
                <mxCell id="mlYN5_otddNIhUL00L2O-24" value="Посмотреть статистику" style="rounded=0;whiteSpace=wrap;html=1;fillColor=#d5e8d4;gradientColor=#97d077;strokeColor=#82b366;" parent="1" vertex="1">
                    <mxGeometry x="90" y="600" width="120" height="40" as="geometry"/>
                </mxCell>
                <mxCell id="mlYN5_otddNIhUL00L2O-25" value="Быстрый старт" style="rounded=0;whiteSpace=wrap;html=1;fillColor=#dae8fc;gradientColor=#7ea6e0;strokeColor=#6c8ebf;" parent="1" vertex="1">
                    <mxGeometry x="349" y="555" width="120" height="35" as="geometry"/>
                </mxCell>
                <mxCell id="mlYN5_otddNIhUL00L2O-26" value="Добавить робота" style="rounded=1;whiteSpace=wrap;html=1;fillColor=#fff2cc;gradientColor=#ffd966;strokeColor=#d6b656;" parent="1" vertex="1">
                    <mxGeometry x="660" y="360" width="120" height="40" as="geometry"/>
                </mxCell>
                <mxCell id="mlYN5_otddNIhUL00L2O-27" value="Выбрать" style="rounded=1;whiteSpace=wrap;html=1;fillColor=#dae8fc;gradientColor=#7ea6e0;strokeColor=#6c8ebf;" parent="1" vertex="1">
                    <mxGeometry x="660" y="130" width="120" height="30" as="geometry"/>
                </mxCell>
                <mxCell id="mlYN5_otddNIhUL00L2O-28" value="Подтвердить" style="rounded=1;whiteSpace=wrap;html=1;fillColor=#dae8fc;gradientColor=#7ea6e0;strokeColor=#6c8ebf;" parent="1" vertex="1">
                    <mxGeometry x="95" y="1200" width="120" height="30" as="geometry"/>
                </mxCell>
                <mxCell id="mlYN5_otddNIhUL00L2O-29" value="Робот 1" style="rounded=0;whiteSpace=wrap;html=1;fillColor=#fff2cc;gradientColor=#ffd966;strokeColor=#d6b656;" parent="1" vertex="1">
                    <mxGeometry x="590" y="130" width="60" height="30" as="geometry"/>
                </mxCell>
                <mxCell id="mlYN5_otddNIhUL00L2O-30" value="&lt;h1&gt;&lt;span style=&quot;background-color: initial;&quot;&gt;Выбор робота&lt;/span&gt;&lt;br&gt;&lt;/h1&gt;" style="text;html=1;strokeColor=none;fillColor=none;spacing=5;spacingTop=-20;whiteSpace=wrap;overflow=hidden;rounded=0;" parent="1" vertex="1">
                    <mxGeometry x="590" y="60" width="190" height="40" as="geometry"/>
                </mxCell>
                <mxCell id="mlYN5_otddNIhUL00L2O-31" style="edgeStyle=orthogonalEdgeStyle;rounded=0;orthogonalLoop=1;jettySize=auto;html=1;entryX=1;entryY=0.75;entryDx=0;entryDy=0;" parent="1" target="mlYN5_otddNIhUL00L2O-29" edge="1">
                    <mxGeometry relative="1" as="geometry">
                        <mxPoint x="650" y="153" as="sourcePoint"/>
                    </mxGeometry>
                </mxCell>
                <mxCell id="mlYN5_otddNIhUL00L2O-32" value="&lt;h1&gt;&lt;span style=&quot;background-color: initial;&quot;&gt;Регистрация&lt;/span&gt;&lt;br&gt;&lt;/h1&gt;" style="text;html=1;strokeColor=none;fillColor=none;spacing=5;spacingTop=-20;whiteSpace=wrap;overflow=hidden;rounded=0;" parent="1" vertex="1">
                    <mxGeometry x="335" y="60" width="190" height="40" as="geometry"/>
                </mxCell>
                <mxCell id="mlYN5_otddNIhUL00L2O-33" value="&lt;h1&gt;&amp;nbsp; &amp;nbsp; &amp;nbsp; &amp;nbsp;Робот 1&lt;/h1&gt;" style="text;html=1;strokeColor=none;fillColor=none;spacing=5;spacingTop=-20;whiteSpace=wrap;overflow=hidden;rounded=0;" parent="1" vertex="1">
                    <mxGeometry x="55" y="497.5" width="190" height="42.5" as="geometry"/>
                </mxCell>
                <mxCell id="mlYN5_otddNIhUL00L2O-34" value="Обновить" style="rounded=0;whiteSpace=wrap;html=1;fillColor=#d5e8d4;gradientColor=#97d077;strokeColor=#82b366;" parent="1" vertex="1">
                    <mxGeometry x="90" y="700" width="120" height="30" as="geometry"/>
                </mxCell>
                <mxCell id="mlYN5_otddNIhUL00L2O-35" value="Устранить проблему" style="rounded=0;whiteSpace=wrap;html=1;fillColor=#d5e8d4;gradientColor=#97d077;strokeColor=#82b366;" parent="1" vertex="1">
                    <mxGeometry x="90" y="655" width="120" height="30" as="geometry"/>
                </mxCell>
                <mxCell id="mlYN5_otddNIhUL00L2O-36" value="Удалить" style="rounded=0;whiteSpace=wrap;html=1;fillColor=#f8cecc;gradientColor=#ea6b66;strokeColor=#b85450;" parent="1" vertex="1">
                    <mxGeometry x="90" y="790" width="120" height="35" as="geometry"/>
                </mxCell>
                <mxCell id="mlYN5_otddNIhUL00L2O-37" value="&lt;h1&gt;&amp;nbsp; &amp;nbsp; &amp;nbsp; &amp;nbsp;Уборка&lt;/h1&gt;" style="text;html=1;strokeColor=none;fillColor=none;spacing=5;spacingTop=-20;whiteSpace=wrap;overflow=hidden;rounded=0;" parent="1" vertex="1">
                    <mxGeometry x="314" y="497.5" width="190" height="42.5" as="geometry"/>
                </mxCell>
                <mxCell id="mlYN5_otddNIhUL00L2O-38" value="Выбор программы" style="rounded=0;whiteSpace=wrap;html=1;fillColor=#d5e8d4;gradientColor=#97d077;strokeColor=#82b366;" parent="1" vertex="1">
                    <mxGeometry x="349" y="620" width="120" height="30" as="geometry"/>
                </mxCell>
                <mxCell id="mlYN5_otddNIhUL00L2O-39" value="Выбор даты и времени" style="rounded=0;whiteSpace=wrap;html=1;fillColor=#d5e8d4;gradientColor=#97d077;strokeColor=#82b366;" parent="1" vertex="1">
                    <mxGeometry x="349" y="685" width="120" height="30" as="geometry"/>
                </mxCell>
                <mxCell id="mlYN5_otddNIhUL00L2O-40" style="edgeStyle=orthogonalEdgeStyle;rounded=0;orthogonalLoop=1;jettySize=auto;html=1;exitX=0.5;exitY=1;exitDx=0;exitDy=0;" parent="1" source="mlYN5_otddNIhUL00L2O-39" target="mlYN5_otddNIhUL00L2O-39" edge="1">
                    <mxGeometry relative="1" as="geometry"/>
                </mxCell>
                <mxCell id="mlYN5_otddNIhUL00L2O-41" value="&lt;h1&gt;&amp;nbsp; &amp;nbsp; &amp;nbsp;Выбор&amp;nbsp; &amp;nbsp; &amp;nbsp; &amp;nbsp; &amp;nbsp;программы&lt;/h1&gt;" style="text;html=1;strokeColor=none;fillColor=none;spacing=5;spacingTop=-20;whiteSpace=wrap;overflow=hidden;rounded=0;" parent="1" vertex="1">
                    <mxGeometry x="590" y="490" width="190" height="60" as="geometry"/>
                </mxCell>
                <mxCell id="mlYN5_otddNIhUL00L2O-42" value="Автоматический режим" style="rounded=0;whiteSpace=wrap;html=1;fillColor=#d5e8d4;gradientColor=#97d077;strokeColor=#82b366;" parent="1" vertex="1">
                    <mxGeometry x="620" y="570" width="120" height="30" as="geometry"/>
                </mxCell>
                <mxCell id="mlYN5_otddNIhUL00L2O-43" value="Влажная уборка" style="rounded=0;whiteSpace=wrap;html=1;fillColor=#d5e8d4;gradientColor=#97d077;strokeColor=#82b366;" parent="1" vertex="1">
                    <mxGeometry x="620" y="615" width="120" height="25" as="geometry"/>
                </mxCell>
                <mxCell id="mlYN5_otddNIhUL00L2O-44" value="Уборка по графику" style="rounded=0;whiteSpace=wrap;html=1;fillColor=#d5e8d4;gradientColor=#97d077;strokeColor=#82b366;" parent="1" vertex="1">
                    <mxGeometry x="620" y="655" width="120" height="30" as="geometry"/>
                </mxCell>
                <mxCell id="mlYN5_otddNIhUL00L2O-45" value="" style="rounded=0;whiteSpace=wrap;html=1;labelBackgroundColor=none;" parent="1" vertex="1">
                    <mxGeometry x="299" y="900" width="230" height="380" as="geometry"/>
                </mxCell>
                <mxCell id="mlYN5_otddNIhUL00L2O-46" value="&lt;h1&gt;&amp;nbsp; Выбор даты&amp;nbsp; &amp;nbsp; &amp;nbsp; и времени&lt;/h1&gt;" style="text;html=1;strokeColor=none;fillColor=none;spacing=5;spacingTop=-20;whiteSpace=wrap;overflow=hidden;rounded=0;" parent="1" vertex="1">
                    <mxGeometry x="55" y="920" width="185" height="70" as="geometry"/>
                </mxCell>
                <mxCell id="mlYN5_otddNIhUL00L2O-47" value="&lt;h1&gt;&amp;nbsp; &amp;nbsp; Настройка&amp;nbsp; &amp;nbsp; &amp;nbsp; &amp;nbsp; &amp;nbsp; графика&lt;/h1&gt;" style="text;html=1;strokeColor=none;fillColor=none;spacing=5;spacingTop=-20;whiteSpace=wrap;overflow=hidden;rounded=0;" parent="1" vertex="1">
                    <mxGeometry x="314" y="920" width="186" height="70" as="geometry"/>
                </mxCell>
                <mxCell id="mlYN5_otddNIhUL00L2O-48" value="Календарь" style="rounded=0;whiteSpace=wrap;html=1;fillColor=#fff2cc;gradientColor=#ffd966;strokeColor=#d6b656;" parent="1" vertex="1">
                    <mxGeometry x="70" y="1000" width="170" height="100" as="geometry"/>
                </mxCell>
                <mxCell id="mlYN5_otddNIhUL00L2O-49" value="Часы/минуты" style="rounded=0;whiteSpace=wrap;html=1;fillColor=#fff2cc;gradientColor=#ffd966;strokeColor=#d6b656;" parent="1" vertex="1">
                    <mxGeometry x="70" y="1130" width="170" height="30" as="geometry"/>
                </mxCell>
                <mxCell id="mlYN5_otddNIhUL00L2O-50" value="Гафик 1" style="rounded=0;whiteSpace=wrap;html=1;fillColor=#d5e8d4;gradientColor=#97d077;strokeColor=#82b366;" parent="1" vertex="1">
                    <mxGeometry x="314" y="1000" width="66" height="30" as="geometry"/>
                </mxCell>
                <mxCell id="mlYN5_otddNIhUL00L2O-51" value="Время" style="rounded=0;whiteSpace=wrap;html=1;" parent="1" vertex="1">
                    <mxGeometry x="390" y="1000" width="70" height="30" as="geometry"/>
                </mxCell>
                <mxCell id="mlYN5_otddNIhUL00L2O-52" value="Добавить график" style="rounded=1;whiteSpace=wrap;html=1;fillColor=#dae8fc;gradientColor=#7ea6e0;strokeColor=#6c8ebf;" parent="1" vertex="1">
                    <mxGeometry x="390" y="1230" width="120" height="30" as="geometry"/>
                </mxCell>
                <mxCell id="mlYN5_otddNIhUL00L2O-53" value="Удалить" style="rounded=1;whiteSpace=wrap;html=1;fillColor=#f8cecc;gradientColor=#ea6b66;strokeColor=#b85450;" parent="1" vertex="1">
                    <mxGeometry x="469" y="1000" width="50" height="30" as="geometry"/>
                </mxCell>
                <mxCell id="mlYN5_otddNIhUL00L2O-54" value="" style="rounded=0;whiteSpace=wrap;html=1;labelBackgroundColor=none;" parent="1" vertex="1">
                    <mxGeometry x="570" y="900" width="230" height="380" as="geometry"/>
                </mxCell>
                <mxCell id="mlYN5_otddNIhUL00L2O-55" value="&lt;h1&gt;&amp;nbsp; &amp;nbsp; &amp;nbsp;Журнал&amp;nbsp;&lt;/h1&gt;" style="text;html=1;strokeColor=none;fillColor=none;spacing=5;spacingTop=-20;whiteSpace=wrap;overflow=hidden;rounded=0;" parent="1" vertex="1">
                    <mxGeometry x="590" y="910" width="190" height="40" as="geometry"/>
                </mxCell>
                <mxCell id="mlYN5_otddNIhUL00L2O-56" value="Дата и время" style="rounded=0;whiteSpace=wrap;html=1;" parent="1" vertex="1">
                    <mxGeometry x="580" y="950" width="200" height="30" as="geometry"/>
                </mxCell>
                <mxCell id="mlYN5_otddNIhUL00L2O-57" value="Программа" style="rounded=0;whiteSpace=wrap;html=1;" parent="1" vertex="1">
                    <mxGeometry x="580" y="980" width="200" height="30" as="geometry"/>
                </mxCell>
            </root>
        </mxGraphModel>
    </diagram>
</mxfile>